<svg id="Layer_2" data-name="Layer 2" xmlns="http://www.w3.org/2000/svg" xmlns:xlink="http://www.w3.org/1999/xlink" viewBox="0 0 1139 693"><defs><style>.cls-1,.cls-17,.cls-20,.cls-21,.cls-22,.cls-29,.cls-30,.cls-31,.cls-32,.cls-33,.cls-7,.cls-8{fill:none;}.cls-2{clip-path:url(#clip-path);}.cls-3{fill:#b3e0dc;}.cls-4{fill:#fff;}.cls-5{clip-path:url(#clip-path-2);}.cls-6{fill:#dff1ef;}.cls-7,.cls-8{stroke:#b0cfca;stroke-width:1.31px;}.cls-20,.cls-21,.cls-31,.cls-32,.cls-33,.cls-7,.cls-8{stroke-miterlimit:10;}.cls-7{opacity:0.6;}.cls-9{fill:#d4d5d4;}.cls-10{fill:#80c9c2;}.cls-11{fill:#e47473;}.cls-12{fill:#354599;}.cls-13{fill:#404fa1;}.cls-14{fill:#d5d6d5;}.cls-15{fill:#3b596c;}.cls-16{fill:#fecc81;}.cls-17,.cls-22,.cls-29,.cls-30{stroke:#384850;stroke-linejoin:round;}.cls-17,.cls-22,.cls-29,.cls-30,.cls-31{stroke-linecap:round;}.cls-17{stroke-width:1.96px;}.cls-18{fill:#fafdff;}.cls-19{fill:#4655a5;}.cls-20,.cls-21{stroke:#db9ec7;stroke-width:1.11px;}.cls-21{stroke-dasharray:4.46 4.46;}.cls-22{stroke-width:1.72px;}.cls-23{fill:#384850;}.cls-24{fill:#d8cdc9;}.cls-25{fill:#a4d4a6;}.cls-26{fill:#81c785;}.cls-27{fill:#616363;}.cls-28{fill:#bdaaa5;}.cls-29{stroke-width:1.81px;}.cls-30{stroke-width:2.03px;}.cls-31,.cls-32{stroke:#fff;}.cls-31{stroke-width:2.26px;}.cls-32{stroke-width:1.25px;}.cls-33{stroke:#b4e0dc;stroke-width:3px;}</style><clipPath id="clip-path"><path class="cls-1" d="M-1175.69,690.54H-90s51.38-101.89,40.84-208.17S-90.46,337.49-141.4,306.69-283.54,197.06-369.26,86.31-707.2,4.95-737.73,26.88s-75.08,44.41-134.89,139.27c-50.28,85.29-120.81,60.29-221.82,172.16S-1175.69,690.54-1175.69,690.54Z"/></clipPath><clipPath id="clip-path-2"><path class="cls-1" d="M14.18,687.76H1078.12s62.06-102,51.58-207.65S1077.68,336.64,1027,306,884.32,203,799.07,92.86,487.18-6.88,432.62,33.76,359.28,71.9,299.8,166.25c-50,84.82-120.15,60-220.6,171.22S14.18,687.76,14.18,687.76Z"/></clipPath></defs><title>illustration-prof</title><g class="cls-2"><rect class="cls-3" x="-539.74" y="125.61" width="562.24" height="331.91"/><path class="cls-4" d="M14.59,133.51v316.1H-531.84V133.51H14.59M30.4,117.7H-547.65V465.42H30.4V117.7Z"/></g><g class="cls-5"><ellipse class="cls-4" cx="426.69" cy="193.87" rx="135.98" ry="125.5"/><path class="cls-6" d="M14.18,687.76H1078.12s62.06-102,51.58-207.65S1077.68,336.64,1027,306,884.32,203,799.07,92.86,487.18-6.88,432.62,33.76,359.28,71.9,299.8,166.25c-50,84.82-120.15,60-220.6,171.22S14.18,687.76,14.18,687.76Z"/><line class="cls-7" x1="985.04" y1="168.98" x2="985.04" y2="1020.45"/><line class="cls-7" x1="1115.65" y1="437.75" x2="264.18" y2="437.75"/><rect class="cls-3" x="534.92" y="115.83" width="250.15" height="209.47"/><path class="cls-4" d="M777.21,123.69V317.44H542.79V123.69H777.21M792.93,108H527.06V333.16H792.93V108Z"/><line class="cls-8" x1="542.79" y1="220.57" x2="777.21" y2="220.57"/><line class="cls-8" x1="660" y1="317.44" x2="660" y2="123.69"/><rect class="cls-3" x="-279.26" y="167.76" width="543.44" height="314.37"/><path class="cls-9" d="M407.75,411.53a14.88,14.88,0,0,1-5.41,0s3.46,3.09,6,2.82C408.33,414.34,408,412.19,407.75,411.53Z"/><path class="cls-10" d="M369.3,56.32V370.69H-174.14V56.32H369.3M371,54.64h-546.8V372.37H371V54.64Z"/><circle class="cls-4" cx="480.65" cy="98.19" r="42.61"/><path class="cls-4" d="M443.35,144.8l30.71-12.6-9.78-18.43-23.93,26.37s-3,2.88-2.16,4.73S443.35,144.8,443.35,144.8Z"/><path class="cls-11" d="M494.59,84c-7.94-4.62-13.94,4-13.94,4s-6-8.61-13.94-4S462.21,96.5,462.64,98s11.23,15.74,18,15.74,17.59-14.21,18-15.74S502.53,88.58,494.59,84Z"/><circle class="cls-4" cx="770.4" cy="204.98" r="42.61"/><path class="cls-4" d="M807.7,251.6,777,239l9.78-18.43,23.93,26.37s3,2.88,2.16,4.73S807.7,251.6,807.7,251.6Z"/><path class="cls-11" d="M756.46,190.76c7.94-4.62,13.94,4,13.94,4s6-8.61,13.94-4,4.49,12.53,4.07,14.06-11.23,15.74-18,15.74-17.59-14.21-18-15.74S748.52,195.38,756.46,190.76Z"/><rect class="cls-10" x="251.78" y="568.43" width="703.58" height="93.04" rx="14.72" ry="14.72"/><polygon class="cls-12" points="874.84 568.81 786.62 568.81 778.33 535.73 874.84 568.81"/><path class="cls-13" d="M746.6,568.43S776,650.38,779,653.7l27.35-1.84s-25.42-108.36-28-116.12L766.5,531Z"/><path class="cls-4" d="M849.35,348.78s-19.53,5.37-19.42,22-11.14,66.36-11.14,66.36,0,6.7-6.91,5.29-44.52-10.89-63.32-23.85c0,0-6.64-25-12.72-22.86s-12.9-5.58-12.9-5.58-10.32-7.37-16.4-.37,3.69,24.52,18.25,31.52,31.15,21.14,31.15,21.14,32.47,17.93,57.14,21.44,24-10.32,24-10.32l22.66-94.93Z"/><path class="cls-4" d="M905.05,342.55a34.65,34.65,0,0,0-4.55-1.21c-2.89-4.16.13-18.88.13-18.88l17.7-53.09-27.46-26.91s-44.79,2.21-44.24,15.48-6.64,35.21-7.74,37.42.55,3.13,2.4,4.06,4.06-.92,4.06-.92c-1.84,9,2.21,24.52,7.37,27.83S874.45,323,874.45,323c0,6.61-5.54,17.88-5.57,18-7.27.71-12.49,1.58-12.49,1.58l10.41,11.8s2.28-.26,5.76-.73C886.06,351.8,917.65,346.94,905.05,342.55Z"/><path class="cls-14" d="M874.45,323s8.88-3.32,11.55-5.65c0,0-3.23,14.78-11.55,19.33-5,3-3.67,0-3.67,0S874.28,327.33,874.45,323Z"/><path class="cls-14" d="M845.33,298.49l2.17-1.8s-.47,5.26-2.61,6C844.89,302.69,844.93,298.83,845.33,298.49Z"/><path class="cls-15" d="M846.62,257.94s-14.29-18.52,14.47-29.31,57.23,12.44,57.23,22.12c0,0,36.77-3.32,39.54,27.1s-1.94,60-1.94,60-1.38,2.49-5.67.83-18.66-5.53-18.66-5.53-2.35-.55-2.63-4,11.34-45.34,3.18-56.68S920,263.75,920,263.75s1.85,34.58-15.39,46.8c0,0-6.59,5.31-8.67-.22s-5.81-21.44-4.42-27.79,6.5-11.05-.83-14.37-8.5,4.84-8.5,4.84,0,3-3.75.83-3.09-7.05-3.09-7.05S858,268.17,846.62,257.94Z"/><path class="cls-16" d="M933.66,542.23s10.83-133,12.68-149.92,2.95-47.19-41.29-49.77c0,0-19.17,14-48.66,0,0,0-19,5.62-23.72,53.82s-8,61.33-4.69,84.16a91,91,0,0,0,6.27,21.8Z"/><path class="cls-17" d="M922.67,351.69s-17.33,0-19.33,35.33"/><path class="cls-17" d="M910.67,346.5s-22.5,18.83-53.17,2.69"/><path class="cls-15" d="M660,633.81a60.94,60.94,0,0,0-11,0c-11.24,1.11-15.85,6.08-12.53,14.51s18.8,10.19,41.66,12.77,23-8.48,21.75-12.77a13.44,13.44,0,0,1-.36-1.56,38.87,38.87,0,0,1-10.88,1.56C676,648.3,665.07,642.36,660,633.81Z"/><path class="cls-4" d="M699.74,639,678,629.33c-.87,7.44-6.06,6.39-6.06,6.39A79.5,79.5,0,0,0,660,633.81c5.07,8.56,16,14.49,28.66,14.49a38.87,38.87,0,0,0,10.88-1.56A22.27,22.27,0,0,1,699.74,639Z"/><path class="cls-15" d="M808.27,659.73c-5.72,6.57-15.26,10.89-26.07,10.89A36.38,36.38,0,0,1,760.84,664a53.47,53.47,0,0,0-5,2.35c-9.93,5.4-12.23,11.78-5.9,18.24s21.29,2.07,43.34-4.46,17.92-16.78,15.06-20.23Z"/><path class="cls-18" d="M808.27,659.73a19.35,19.35,0,0,1-3.52-7.77l-23.47,1.58c0,5.22-3.57,5.66-3.57,5.66A79.5,79.5,0,0,0,760.84,664a36.38,36.38,0,0,0,21.36,6.62C793,670.62,802.55,666.3,808.27,659.73Z"/><path class="cls-4" d="M925.33,356.11c23.67,3.46,16.36,41.72,16.36,41.72s-9,62.13-20.23,76.43c-8.29,10.57-24,11.68-24,11.68l-69.13,9.54-30.14-4.54s6.17-12.37,35.39-10.16c0,0,46.56-17.48,66.83-14.75,0,0,2.13-.95,2.49-5.18s6.17-68.18,6.17-77.58S913.53,354.39,925.33,356.11Z"/><path class="cls-19" d="M933.07,550.85c8.29-22.42-10.86-33.12-38.14-40.12S808.66,489.34,782.12,489s-33.94,3-42.79,18.83S677.23,629,677.23,629l24,10.69S762.81,546.85,766.5,531c0,0,91,37.17,118.64,39.38S926.8,567.8,933.07,550.85Z"/><path class="cls-20" d="M912.06,532.78l-2.15-.5"/><path class="cls-21" d="M905.57,531.29c-25.29-5.75-116.79-26.06-135.81-23.21,0,0-8-.83-11.34,4.15-2.94,4.41-50.09,88.14-60.86,107.28"/><path class="cls-20" d="M696.47,621.45l-1.08,1.92"/><path class="cls-22" d="M867.88,567.28A1025.5,1025.5,0,0,1,766.5,531s-3,11.48-19.23,36.33"/><path class="cls-23" d="M623.1,667.5s46.67,4.16,50.14,15.18c2.09,6.64-1,14.29-10.15,16.56s-66,7.21-77.39-8.06C569.33,669.14,623.1,667.5,623.1,667.5Z"/><path class="cls-24" d="M406,296.13S436,292.77,429.31,344s-23.51,81.45,18.47,78.93,40.35,15,40.35,15l-32.5,5.35s-32.21-6.61-45.64-5.49Z"/><polygon class="cls-15" points="455.64 534.61 443.59 675.65 478.01 679.01 517.71 554.61 498.17 519.89 455.64 534.61"/><polygon class="cls-23" points="359.09 568.03 452.79 568.03 455.64 534.61 359.09 568.03"/><path class="cls-25" d="M277.92,330.14c-45.71,70.56-10.24,189.76-10.24,189.76C292.19,458.82,278.21,332.76,277.92,330.14Z"/><path class="cls-26" d="M425.12,378.83a78.63,78.63,0,0,0,0-49.12S391.41,242,305.77,301.16a102.47,102.47,0,0,0-27.85,29c.29,2.62,14.27,128.68-10.24,189.76L429,449.36S416.3,405.28,425.12,378.83Z"/><path class="cls-24" d="M316.68,301.16c20.15,0,21.11,35.27,21.11,35.27L333.6,417s-.84,5,9.23,5.88,100.76,5.88,100.76,5.88l42.83,9-39.75,7.35s-9-4.6-22.4-3.76-92.36,11.76-92.36,11.76-6.72,4.2-21-5-16.79-43.66-16.79-43.66-2.64-65.49.72-75.57S296.53,301.16,316.68,301.16Z"/><path class="cls-17" d="M395.37,321.57c31.48,24-5.75,71,6.4,96.19"/><path class="cls-15" d="M268.94,526.19c0-45,89-62.13,89-62.13l102.44-21.83s22.67-10.08,47,0,31.07,33.59,31.07,33.59l79.77,180.52-39.46,6.72L498.16,519.89,356.26,569l-37.78.84S268.94,571.24,268.94,526.19Z"/><path class="cls-24" d="M390.06,300.45l-5-23.51s8.85,2,13.08.51,17.88-10.27,22-45.22c0,0,.63-17.63,0-22.67s-2.83-23.62-2.83-23.62H359.94l-28.65,19.84-2.83,31.8L344.82,259s9.76,24.56,5.35,38.73C350.18,297.72,378,310.42,390.06,300.45Z"/><path class="cls-27" d="M348.11,269s-44.85,5.71-45.48-44,25.19-92.57,80-82.18,52.58,32.43,53.21,39,0,28.65-15.74,27.71-34.32-8-38.41-3.54-3.78,13.93-8.82,11.41-8.19-17.16-17.63-11.41-2.83,15.51,4.09,19.91S364,242.62,358,248.6,348.11,269,348.11,269Z"/><path class="cls-24" d="M351.32,289.1s-5.55-.63-7.12,2.2,6,6.42,6,6.42S357.18,292.25,351.32,289.1Z"/><path class="cls-17" d="M344,301.16s17.53,8.29,25.72,9.24l7.85,6.09s1.34.87,2.13,0,5.54-11,5.54-11l13,4.36s2.13.24,2-1.1-4.87-8.92-4.87-8.92.27-5.81-2.85-6.93"/><path class="cls-17" d="M365.57,565.79,495.9,520.68s1.33-1.1,3.48,1.37S521,560.35,521,560.35"/><path class="cls-24" d="M581.7,662.56a22.11,22.11,0,0,1,3.37,9.31c.84,5.88-5.88,16.37,9.66,18.89s36.6,1.27,49.12-1.68c8.47-2,10.52-12.68-5-16.88s-13.11-2.85-17.9-6.21a16.47,16.47,0,0,1-6-9.09Z"/><path class="cls-23" d="M482.86,691.56s43.86,16.49,44.25,28c.24,7-4.76,13.5-14.2,13.24s-65.57-10.72-72.41-28.46C430.61,678.77,482.86,691.56,482.86,691.56Z"/><path class="cls-24" d="M444.29,675.73a22.11,22.11,0,0,1,.76,9.88c-.76,5.89-10,14.21,4.25,20.79s34.92,11,47.78,11.52c8.7.34,13.53-9.41-.32-17.61s-11.87-6.25-15.59-10.77a16.47,16.47,0,0,1-3.37-10.37Z"/><path class="cls-28" d="M385,276.94s-24.86-6.45-31.37-12.3c0,0,10,19.41,16.88,24.4s13.41,3.84,14,5.73,2.95,1.76,3.37-.29a7.42,7.42,0,0,0,.28-2.6Z"/><path class="cls-28" d="M412.41,245.43c1.52-2.1-2.36,6.69-4.32,6.2s-4.12-5.07-4.12-5.07S410.89,247.53,412.41,245.43Z"/></g><path class="cls-25" d="M135.5,616.53s31.66-31.28,32.6-58.79-26.57-53.14-30.71-84-9.8-78.76-13.19-93.46-15.83-43-42.59-41.08-30.9,36.56-13.94,50.5,9.8,58.41,6.78,77.26-22.23,36.18-20,69.34,11.68,53.51,31.66,80.27Z"/><path class="cls-29" d="M124.73,616.53s16.77-121.54,88-188.24"/><path class="cls-30" d="M99.91,616.53s-9.61-69.17-29.24-101.38"/><line class="cls-31" x1="115.8" y1="613.89" x2="99.91" y2="377.98"/><line class="cls-31" x1="87.64" y1="448.45" x2="105.32" y2="459.36"/><line class="cls-31" x1="123.06" y1="480.11" x2="107.75" y2="495.5"/><line class="cls-31" x1="87.64" y1="527.59" x2="111.2" y2="546.78"/><line class="cls-31" x1="133.99" y1="556.99" x2="113.62" y2="582.64"/><polygon class="cls-16" points="112.7 616.53 57.3 616.53 82.74 687.76 112.7 687.76 142.66 687.76 168.1 616.53 112.7 616.53"/><line class="cls-32" x1="80.48" y1="632.64" x2="140.18" y2="632.64"/><line class="cls-32" x1="99.91" y1="627.56" x2="159.62" y2="627.56"/><line class="cls-33" x1="14.42" y1="687.76" x2="1078.12" y2="687.76"/></svg>