<svg id="Layer_2" data-name="Layer 2" xmlns="http://www.w3.org/2000/svg" xmlns:xlink="http://www.w3.org/1999/xlink" viewBox="0 0 1139 693"><defs><style>.cls-1,.cls-16,.cls-21,.cls-22,.cls-25,.cls-27,.cls-29,.cls-30,.cls-32,.cls-33,.cls-5,.cls-7{fill:none;}.cls-2{fill:#fff;}.cls-3{fill:#e0f2f0;}.cls-4{clip-path:url(#clip-path);}.cls-5,.cls-7{stroke:#b0d0cb;}.cls-29,.cls-32,.cls-33,.cls-5,.cls-7{stroke-miterlimit:10;}.cls-16,.cls-21,.cls-22,.cls-29,.cls-5,.cls-7{stroke-width:1.32px;}.cls-5{opacity:0.6;}.cls-6{fill:#e2f4fd;}.cls-8{fill:#b3e0dc;}.cls-9{clip-path:url(#clip-path-2);}.cls-10,.cls-17{fill:#d5d6d5;}.cls-10{opacity:0.25;}.cls-11{fill:#84d2f6;}.cls-12{fill:#ffd550;}.cls-13{fill:#3b586c;}.cls-14{fill:#d85385;}.cls-15{fill:#ef6491;}.cls-16{stroke:#384850;}.cls-16,.cls-21,.cls-22,.cls-25,.cls-27,.cls-30{stroke-linecap:round;stroke-linejoin:round;}.cls-18{fill:#ffdf82;}.cls-19{fill:#d8cdc9;}.cls-20{fill:#5a73b7;}.cls-21,.cls-22,.cls-32{stroke:#fff;}.cls-22{stroke-dasharray:5.35 5.35;}.cls-23{fill:#616363;}.cls-24{fill:#bdaaa5;}.cls-25{stroke:#d0d9dc;}.cls-25,.cls-27{stroke-width:10.54px;}.cls-26{fill:#465b65;}.cls-27,.cls-29{stroke:#e6e7e7;}.cls-28{fill:#e6e7e7;}.cls-30{stroke:#465b65;stroke-width:15.81px;}.cls-31{fill:#81cbc4;}.cls-32{stroke-width:2.64px;}.cls-33{stroke:#b4e0dc;stroke-width:3px;}.cls-34{clip-path:url(#clip-path-3);}.cls-35{fill:#80c9c2;}</style><clipPath id="clip-path"><path class="cls-1" d="M6.31,689.61H1092s51.38-101.89,40.84-208.17-41.28-144.88-92.23-175.67S898.46,196.14,812.74,85.38,474.8,4,444.27,26,369.19,70.36,309.38,165.23C259.1,250.52,188.58,225.51,87.56,337.39S6.31,689.61,6.31,689.61Z"/></clipPath><clipPath id="clip-path-2"><ellipse class="cls-1" cx="436.97" cy="193" rx="136.73" ry="126.19"/></clipPath><clipPath id="clip-path-3"><path class="cls-1" d="M1196.18,686.83H2260.12s62.06-102,51.58-207.65-52-143.46-102.68-174.09-142.69-103-227.94-213.15-311.9-99.74-366.45-59.1S1541.28,71,1481.8,165.32c-50,84.82-120.15,60-220.6,171.22S1196.18,686.83,1196.18,686.83Z"/></clipPath></defs><title>illustration-atend</title><ellipse class="cls-2" cx="436.97" cy="193" rx="136.73" ry="126.19"/><path class="cls-3" d="M6.31,689.61H1092s51.38-101.89,40.84-208.17-41.28-144.88-92.23-175.67S898.46,196.14,812.74,85.38,474.8,4,444.27,26,369.19,70.36,309.38,165.23C259.1,250.52,188.58,225.51,87.56,337.39S6.31,689.61,6.31,689.61Z"/><g class="cls-4"><line class="cls-5" x1="494.07" y1="-92.7" x2="494.07" y2="763.46"/><line class="cls-5" x1="1055.16" y1="54.55" x2="198.99" y2="54.55"/><rect class="cls-6" x="65.94" y="245.97" width="251.52" height="210.62"/><path class="cls-2" d="M309.55,253.88V448.69H73.84V253.88H309.55m15.81-15.81H58V464.5H325.36V238.06Z"/><line class="cls-7" x1="73.84" y1="351.28" x2="309.55" y2="351.28"/><line class="cls-7" x1="191.7" y1="448.69" x2="191.7" y2="253.88"/><rect class="cls-8" x="642.26" y="124.68" width="562.24" height="331.91"/><path class="cls-2" d="M1196.59,132.59v316.1H650.16V132.59h546.43m15.81-15.81H634.35V464.5H1212.4V116.78Z"/><path class="cls-2" d="M447.65,342.94l26.18-39.56-26.37-13.94-7.11,50.39s-1.24,5.83,1.24,7.33S447.65,342.94,447.65,342.94Z"/><ellipse class="cls-2" cx="436.97" cy="193" rx="136.73" ry="126.19"/><g class="cls-9"><path class="cls-10" d="M560.55,221.23c-4.66-10.58-9.35-21.15-14-31.75-.5-1.16-1.07-1.38-2.2-1-6.49,1.92-13.07,3.6-19.21,6.55a12.84,12.84,0,0,0-2.22,1.38,5.18,5.18,0,0,0-1,7.35c1,1.19,2.05,2.27,3.12,3.37,4.08,4.19,4.81,11,.94,15.39-5.41,6.14-15.36,4.12-18-3.1-.7-1.93-.61-4.14-.9-6.23a21.78,21.78,0,0,0-.55-3.35c-1-3.21-3.05-4.59-6.19-3.47a110.18,110.18,0,0,0-12,5.32c-2.71,1.36-5.22,3.1-7.83,4.67a2.12,2.12,0,0,0-.74,3c3.64,5.73,7.28,11.45,9.64,17.87a12,12,0,0,1,.68,3.48c.12,2.34-1.78,4.24-4.57,4.62-1.5.2-3,.21-4.54.29-4.51.23-8.06,2-10.08,6.24A10.52,10.52,0,0,0,480,267a11.55,11.55,0,0,0,9.25-3.59c.79-.8,1.58-1.6,2.41-2.36a5.64,5.64,0,0,1,9.07,1.32c2.33,3.94,3.61,8.27,5,12.58.77,2.42,1.43,4.88,2,7.36.33,1.37,1,1.44,2.08.94,5-2.21,9.94-4.36,14.9-6.55L553,264.23c6.76-3,13.51-6,20.3-8.89a2.1,2.1,0,0,0,1.1-2.79c-4.65-10.42-9.23-20.87-13.83-31.31Z"/></g><path class="cls-11" d="M387.73,267.12c4.8,10.89,9.62,21.76,14.36,32.67.57,1.31,1.23.9,2.06.53l33.72-14.85q15.27-6.73,30.55-13.44c1-.42,1.64-.84,1.23-2.05-2.14-6.29-4.18-12.62-6.46-18.86a13.3,13.3,0,0,0-3-4.42,3.88,3.88,0,0,0-5.16-.36,46.3,46.3,0,0,0-4.83,4.22c-5.15,5-12.57,4.48-16.79-1.31a10.23,10.23,0,0,1-1-10.92,9.65,9.65,0,0,1,8.7-6.08,38,38,0,0,0,7.14-1c2.78-.7,3.91-2.91,3.37-5.73-.74-3.85-2.55-7.26-4.44-10.61S443,208,440.9,204.58c-.89-1.49-1-1.48-2.5-.51-5.55,3.57-11.12,7.11-17.26,9.63-.25.1-.5.23-.76.33-5.2,2-8.25.07-8.74-5.45-.18-2-.23-4.06-.56-6.05-1-5.82-7.78-10.06-14.18-7.78a11,11,0,0,0-6.14,14.93c.9,1.88,2.5,3.42,3.79,5.11a37.15,37.15,0,0,1,3,3.9,3.67,3.67,0,0,1-.81,4.93,13.33,13.33,0,0,1-2.94,2.09c-5.79,3-12.05,4.75-18.31,6.49-.1,0-.22,0-.33,0-2.49.57-2.48.57-1.43,2.94l14.06,31.9Z"/><path class="cls-11" d="M498.36,128.61q-5.81-13.19-11.62-26.38c-.81-1.84-1.67-3.66-2.33-5.55-.44-1.24-1-1.26-2.06-.8-7.55,3.33-15.12,6.61-22.66,9.93q-18.92,8.34-37.83,16.71c-1,.46-2.06,1-3.14,1.36a1.35,1.35,0,0,0-1,2c1.1,3.63,2.06,7.3,3.27,10.9.95,2.82,2.12,5.57,3.29,8.32a11.6,11.6,0,0,0,1.7,2.76c1.88,2.29,4.41,2.63,6.75.83a46.52,46.52,0,0,0,4.2-3.83,10.45,10.45,0,0,1,11.81-2.44,10.92,10.92,0,0,1,6.76,10.08c-.19,5.49-3.9,10.23-9.55,10.46a39.27,39.27,0,0,0-4.84.48c-5.46.91-7.07,3.61-4.84,8.75,1.87,4.31,4.18,8.44,6.38,12.6,1,1.86,2.23,3.59,3.24,5.44.64,1.18,1.24,1.34,2.4.64,4.59-2.76,9.17-5.55,13.88-8.1a24.51,24.51,0,0,1,6.53-2.37c3.3-.7,5.47,1,5.92,4.38a42.32,42.32,0,0,1,.3,4.54c.17,6.58,4.56,10.48,9.44,11.1,8.24,1,13.82-6.64,11.54-14.12A14.48,14.48,0,0,0,491.6,180a17,17,0,0,1-2.24-2.56c-1.95-2.8-1.58-5.28,1.37-7a47.65,47.65,0,0,1,8.34-4c4.23-1.5,8.59-2.65,12.92-3.85,1.41-.39.83-1.12.53-1.82q-3.55-8.22-7.14-16.43-3.46-7.9-7-15.79Z"/><path class="cls-11" d="M362.08,223.39c-1.19,0-1.74-.89-2.12-1.77-3.49-8-7.09-16.19-10.57-24.07l-3.53-8h0l-13.58-30.83c-.94-2.13-.79-2.52,1.34-3.46l9.55-4.23q17.73-7.85,35.47-15.69,4.35-1.92,8.72-3.81c3.36-1.46,6.73-2.92,10.08-4.41a2.83,2.83,0,0,1,1.14-.29c1.14,0,1.46,1.15,1.57,1.58,1,3.56,2,7.24,3.17,10.89a34.59,34.59,0,0,0,4.8,10.39,3.9,3.9,0,0,0,3.08,1.86,4.23,4.23,0,0,0,2.4-.87,30.69,30.69,0,0,0,4.17-3.68,12,12,0,0,1,8.43-3.67h.49a11.22,11.22,0,0,1,11.24,9.9,11.07,11.07,0,0,1-8.8,12.41,31.49,31.49,0,0,1-4.13.46c-.94.06-1.91.13-2.85.25a4.3,4.3,0,0,0-4.19,5.92,11.71,11.71,0,0,0,.59,1.9c2.53,6.39,6.21,12.22,9.76,17.64a2.26,2.26,0,0,1,.53,1.74,2.11,2.11,0,0,1-1.1,1.23c-1,.59-2.06,1.25-3,1.89-1.35.86-2.74,1.76-4.19,2.51-4.08,2.12-8.09,4.16-12.21,5.82a8.73,8.73,0,0,1-3.21.7c-3,0-4.92-2.14-5.46-6-.2-1.44-.3-2.9-.4-4.4a9.76,9.76,0,0,0-2.22-6.2,10.31,10.31,0,0,0-7.72-3.5A10.32,10.32,0,0,0,379,195.26a10.36,10.36,0,0,0,2.94,7.51c.4.42.81.84,1.22,1.26.8.82,1.63,1.66,2.38,2.57a6.2,6.2,0,0,1,1.7,4.7,6.12,6.12,0,0,1-2.79,4.06,13.42,13.42,0,0,1-3.42,1.9c-2.82,1-5.65,1.89-8.48,2.82-3,1-6.17,2-9.24,3.08A3.87,3.87,0,0,1,362.08,223.39Z"/><path class="cls-2" d="M398.58,127.5c.48,0,.73.35.94,1.1,1,3.65,2,7.31,3.17,10.92a34.81,34.81,0,0,0,4.9,10.58,4.55,4.55,0,0,0,3.6,2.12,4.87,4.87,0,0,0,2.78-1,31.11,31.11,0,0,0,4.26-3.76,11.36,11.36,0,0,1,8-3.48h.46a10.58,10.58,0,0,1,10.59,9.32A10.45,10.45,0,0,1,429,165c-2.27.46-4.63.4-6.93.7-4,.53-5.57,2.8-4.75,6.71a12.32,12.32,0,0,0,.62,2c2.51,6.34,6.11,12.09,9.82,17.76.58.88.75,1.41-.35,2-2.44,1.4-4.72,3.09-7.22,4.39-4,2.07-8,4.12-12.15,5.79a8.06,8.06,0,0,1-3,.65c-2.65,0-4.32-1.92-4.8-5.46-.2-1.44-.3-2.9-.4-4.36a10.56,10.56,0,0,0-2.38-6.59,10.93,10.93,0,0,0-8.21-3.72,10.73,10.73,0,0,0-7.24,2.8,10.61,10.61,0,0,0-.52,15.53c1.19,1.26,2.47,2.45,3.56,3.79,2.4,2.94,2.06,5.6-1,7.8a12.74,12.74,0,0,1-3.25,1.82c-5.89,2-11.84,3.87-17.73,5.89a3.29,3.29,0,0,1-1,.21c-.7,0-1.11-.43-1.52-1.37-4.57-10.5-9.21-21-13.83-31.46h0l-13.85-31.44c-.79-1.78-.78-1.8,1-2.59q22.5-10,45-19.92c6.26-2.76,12.55-5.44,18.8-8.22a2.25,2.25,0,0,1,.87-.24m0-1.32h0a3.45,3.45,0,0,0-1.4.35c-3.35,1.49-6.77,3-10.08,4.41q-4.37,1.9-8.72,3.81-17.6,7.77-35.19,15.57l-9.82,4.35c-2.44,1.08-2.75,1.89-1.68,4.33l10.38,23.57,2.94,6.66.52,1.22,3.26,7.39c3.48,7.88,7.07,16,10.57,24.06a3,3,0,0,0,2.73,2.16,4.5,4.5,0,0,0,1.47-.29c3.06-1.05,6.2-2.08,9.23-3.07,2.79-.91,5.67-1.86,8.5-2.82a14.05,14.05,0,0,0,3.6-2,6.74,6.74,0,0,0,3.06-4.51,6.82,6.82,0,0,0-1.84-5.2c-.76-.93-1.6-1.79-2.42-2.61-.41-.41-.81-.82-1.21-1.24a9.71,9.71,0,0,1-2.76-7,9.66,9.66,0,0,1,9.56-9.08,9.65,9.65,0,0,1,7.22,3.28,9.15,9.15,0,0,1,2.05,5.81c.1,1.51.2,3,.41,4.45.57,4.19,2.8,6.6,6.11,6.6a9.38,9.38,0,0,0,3.46-.75c4.15-1.67,8.17-3.71,12.27-5.84,1.48-.77,2.88-1.67,4.24-2.55,1-.63,2-1.29,3-1.87a2.7,2.7,0,0,0,1.42-1.65,2.88,2.88,0,0,0-.62-2.26c-3.53-5.39-7.19-11.19-9.7-17.52a10.91,10.91,0,0,1-.56-1.8,3.66,3.66,0,0,1,3.64-5.13c.91-.12,1.83-.18,2.8-.25a32,32,0,0,0,4.22-.47,11.72,11.72,0,0,0,9.32-13.14,11.87,11.87,0,0,0-11.9-10.47h-.52a12.76,12.76,0,0,0-8.88,3.87,30.09,30.09,0,0,1-4.07,3.6,3.6,3.6,0,0,1-2,.76,3.29,3.29,0,0,1-2.55-1.59,34,34,0,0,1-4.7-10.19c-1.16-3.65-2.18-7.32-3.16-10.87-.38-1.37-1.12-2.06-2.21-2.06Z"/><path class="cls-12" d="M560.55,215.14c-4.66-10.58-9.35-21.15-14-31.75-.5-1.16-1.07-1.38-2.2-1-6.49,1.92-13.07,3.6-19.21,6.55a12.84,12.84,0,0,0-2.22,1.38,5.18,5.18,0,0,0-1,7.35c1,1.19,2.05,2.27,3.12,3.37,4.08,4.19,4.81,11,.94,15.39-5.41,6.14-15.36,4.12-18-3.1-.7-1.93-.61-4.14-.9-6.23a21.78,21.78,0,0,0-.55-3.35c-1-3.21-3.05-4.59-6.19-3.47a110.18,110.18,0,0,0-12,5.32c-2.71,1.36-5.22,3.1-7.83,4.67a2.12,2.12,0,0,0-.74,3c3.64,5.73,7.28,11.45,9.64,17.87a12,12,0,0,1,.68,3.48c.12,2.34-1.78,4.24-4.57,4.62-1.5.2-3,.21-4.54.29-4.51.23-8.06,2-10.08,6.24a10.52,10.52,0,0,0,9,15.22,11.55,11.55,0,0,0,9.25-3.59c.79-.8,1.58-1.6,2.41-2.36a5.64,5.64,0,0,1,9.07,1.32c2.33,3.94,3.61,8.27,5,12.58.77,2.42,1.43,4.88,2,7.36.33,1.37,1,1.44,2.08.94,5-2.21,9.94-4.36,14.9-6.55L553,258.13c6.76-3,13.51-6,20.3-8.89a2.1,2.1,0,0,0,1.1-2.79c-4.65-10.42-9.23-20.87-13.83-31.31Z"/><path class="cls-13" d="M773.47,560.72s-25.3,92.56-16.83,127.11,141.62,10.43,141.62,10.43,22.38-102.32,0-124.7C856.49,532.84,773.47,560.72,773.47,560.72Z"/><path class="cls-13" d="M785.18,514.54s-56.05-12.76-46.92-94.93c3.92-38.44,42-45.47,42-45.47s8-3.8,9.63-12.63-6.42-11.24-6.42-30.5,16.85-44.94,18.06-57.38-7.62-13.64-7.62-27.29,12.44-49,63.4-48.15,63.8,27.69,64.6,45.74.4,113.15,49,177c29.69,40.93-27.69,109.94-56.18,121.18s-58.65-26.26-58.65-26.26-20.8-15.28-2.78-69.49,19.92-36.17,17.09-74.38l-44.2-4.55-9.63,6.42Z"/><path class="cls-2" d="M826.17,367.39s3.08-22.14,5.08-28.15c0,0-6.21.46-8.43-1.52a48.7,48.7,0,0,1-16.45-27c-5.42-24.88-2.21-42.13-2.21-42.13s2.21,13.44,63.6,9.43c0,0,25.48,7.82,6.82,53-12.24,29.09-4.21,40.93-4.21,40.93S845.76,377.08,826.17,367.39Z"/><path class="cls-14" d="M816.54,373.81s-95.23,1.07-102.72,0a12,12,0,0,1-9.63-7.49L642.13,262.53l-18.19,9.63s43.6,98.78,49.62,118.24,25.08,21.23,25.08,21.23l87.68,17.66S787.95,393.64,816.54,373.81Z"/><path class="cls-15" d="M773.47,560.72l124.79,12.84-.89-21.88-.82-8.25s-21-4-40.22-29.86-1-67.61-1-67.61c29.29-64,15-74,15-74-27.89,5-44.2-4.55-44.2-4.55-4.28,1.07-9.63,6.42-9.63,6.42-28.59,19.83-30.22,55.48-30.22,55.48a433.65,433.65,0,0,1,2,59.82C787,519.59,773.47,560.72,773.47,560.72Z"/><path class="cls-2" d="M823.5,583s-18.07,9.63-20.27,18.19,4.49,5.59,4.49,5.59-10,23.24,7.09,23.77,30.63-39,30.63-39Z"/><path class="cls-2" d="M623.94,272.16,614.58,257a97.88,97.88,0,0,1-27.69-4.82l-10.83.35s-8.83-1.4-.4-5.82,14.45-2.16,14.45-2.16,13,.8,11.24-5.22-9.23-5.22-15.65-5.22-17.86,4-17.86,4-5.68,2.41-4.48-2.41,21.33-12,49.82-10.43c0,0,13.64-.3,29,37.25Z"/><path class="cls-16" d="M815.16,376.34c-25.1,10.3-28.84,52.94-28.84,52.94"/><path class="cls-14" d="M853.28,508.8c-2.4,5.82-29.79,74.2-29.79,74.2l21.94,8.56L876,533.07S860.22,521.4,853.28,508.8Z"/><line class="cls-16" x1="858" y1="568.23" x2="876.14" y2="533.57"/><path class="cls-17" d="M819.4,309.28a37.49,37.49,0,0,0,9.41.66L825,315.4s-1.17,1.22-2.12,0S819.4,309.28,819.4,309.28Z"/><path class="cls-17" d="M831.25,339.23s20.37-2.71,30.42-6.41L847,359.58a13.15,13.15,0,0,1-8,5.92,91.2,91.2,0,0,1-12.76,1.89S829.6,343.11,831.25,339.23Z"/><path class="cls-16" d="M832.25,378.76s20.57,8.77,41.41,2"/><path class="cls-18" d="M341.07,455.76s-61.66,45.52,4.34,196.69l109-39.93s-5.4-62.38-18.76-82.1-23.39-65-45-76.56Z"/><path class="cls-19" d="M540.63,469.45l16.68-30s4.87-10.24-5.77-16.58-23.74,9.48-23.74,9.48,3.36-10.78-1-8.9-7.94,10-8.33,19.16-.14,16.57-.14,16.57Z"/><path class="cls-19" d="M328.25,432.23s22.83,19.86,9.25,27.7c0,0,7,13,38.15,5.79s13.61-9.3,13.61-9.3-2.17-9.62-2.2-14.77c0,0,21.68,2.12,26.45-3.13s4.42-26.65,4.42-26.65,7.82-2.24,2.36-9-8-23.56-8-23.56l-5.31-14.25s-9.92-26.94-32.33-24c-25.91,3.45-53.12,17.75-52.64,40.21S328.25,432.23,328.25,432.23Z"/><path class="cls-12" d="M364.09,489.85c-7,12.89-17.06,22.63,29.24,45.16l25.38-36C398,485.5,372.51,474.26,364.09,489.85Z"/><path class="cls-19" d="M518.28,459.22c-31.48,19-70.59,63.11-70.59,63.11-1.65-2.79-14.06-13.65-29-23.36l-25.38,36,2.61,1.26c49.33,23.45,64.66,16.86,73.84,14.14s70.86-81,70.86-81Z"/><path class="cls-16" d="M418.71,499s-40-26.45-51.53-13.06"/><path class="cls-16" d="M393.33,535s-42.74-16.37-33.78-36.61"/><path class="cls-20" d="M345.4,652.45s20.68,43.92,71.54,42.05,107.25-5,127.43-30.9c0,0,17.44,79.38,28.82,82.42s30.8-4.36,30.8-4.36-4-73.31-12.54-93.63-17.86-32-38.7-32.07-52.49-13-98.32-3.44Z"/><path class="cls-21" d="M402.22,631.65a13.91,13.91,0,0,0,1.35,2.25"/><path class="cls-22" d="M407.07,637.94c11.47,11.1,47.36,30.49,148.74,2.44,0,0,17.75-17.42,32.89,100.06"/><path class="cls-23" d="M327.13,431s11.47,25.37,37.9-20.84c0,0,5.82-4.38-1.84-11.57s2.14-16.65,7.43-13,3.58,8.39,7,8.28,7-2.78,5.94-16.94,22.86-11.6,22.86-11.6,5.15-10.25,3.93-16.87c-5.37-29.28-52.59-14.48-68-4.37C306.25,367.71,311.14,411,327.13,431Z"/><path class="cls-24" d="M387.05,441.64A140.58,140.58,0,0,1,364.38,438s3,9.67,11.44,13.47a23.9,23.9,0,0,0,12.84,2.11A68.57,68.57,0,0,1,387.05,441.64Z"/><path class="cls-16" d="M387,470.26c-31.91,10.07-48.77,1.06-52.17-1.38"/><path class="cls-25" d="M248.63,480.09l30-1.91c23.7-1.5,43.67,102.5,43.67,102.5L345.9,696.58"/><polyline class="cls-25" points="494.29 766.66 511.24 723.32 487.92 611.46 346.3 616.78 345.3 703.98 505.4 695.3"/><path class="cls-26" d="M342.79,611.46c43.7,0,79.13,41.44,79.13,92.56s-35.43,92.56-79.13,92.56S263.65,755.13,263.65,704s35.43-92.56,79.13-92.56m0-15.81c-25.83,0-50,11.59-68,32.65-17.39,20.34-27,47.23-27,75.72s9.58,55.38,27,75.72c18,21.05,42.14,32.65,68,32.65s50-11.59,68-32.65c17.39-20.34,27-47.23,27-75.72s-9.58-55.38-27-75.72c-18-21.05-42.14-32.65-68-32.65Z"/><ellipse class="cls-27" cx="345.57" cy="704.02" rx="75.98" ry="92.56"/><ellipse class="cls-28" cx="345.57" cy="704.02" rx="13.61" ry="16.58" transform="translate(-24.36 12.49) rotate(-2)"/><line class="cls-29" x1="342.34" y1="611.51" x2="348.8" y2="796.52"/><line class="cls-29" x1="296.71" y1="774.89" x2="394.43" y2="633.16"/><line class="cls-29" x1="402.23" y1="765.66" x2="288.24" y2="643.31"/><line class="cls-29" x1="382.22" y1="785.11" x2="308.91" y2="622.93"/><line class="cls-29" x1="319.62" y1="791.03" x2="371.77" y2="617.11"/><line class="cls-29" x1="413.93" y1="663.6" x2="275.03" y2="746.09"/><line class="cls-29" x1="273.12" y1="676.09" x2="417.4" y2="734.16"/><line class="cls-29" x1="384.02" y1="624.19" x2="307.78" y2="784.3"/><line class="cls-29" x1="334.83" y1="795.64" x2="357.75" y2="612.65"/><line class="cls-29" x1="367.87" y1="792.51" x2="324.73" y2="615.01"/><line class="cls-29" x1="394.65" y1="774.65" x2="297.96" y2="631.9"/><line class="cls-29" x1="279.07" y1="659.24" x2="412.45" y2="747.96"/><line class="cls-29" x1="420.89" y1="716.03" x2="270.12" y2="693.13"/><line class="cls-29" x1="272.74" y1="730.44" x2="419.46" y2="682.47"/><line class="cls-29" x1="286.04" y1="761.5" x2="404.86" y2="646.17"/><line class="cls-30" x1="278.67" y1="478.19" x2="237.43" y2="480.8"/><path class="cls-24" d="M417.92,411.86a15,15,0,0,1-5.44,0s2.88,3.5,5.42,3.22A14.93,14.93,0,0,0,417.92,411.86Z"/><path class="cls-25" d="M664.83,587.29c29.84,3.11,28.53,109,28.53,109"/><rect class="cls-31" x="472.56" y="556.57" width="246.95" height="33.99" rx="5.27" ry="5.27"/><line class="cls-32" x1="539.41" y1="568.62" x2="643.23" y2="568.62"/><line class="cls-32" x1="553.18" y1="561.65" x2="657" y2="561.65"/><path class="cls-25" d="M74.15,587.29c29.84,3.11,28.53,109,28.53,109"/><rect class="cls-31" x="-118.11" y="556.57" width="246.95" height="33.99" rx="5.27" ry="5.27"/><line class="cls-32" x1="-51.27" y1="568.62" x2="52.55" y2="568.62"/><line class="cls-32" x1="-37.5" y1="561.65" x2="66.32" y2="561.65"/></g><line class="cls-33" x1="6.31" y1="689.61" x2="1091.98" y2="689.61"/><g class="cls-34"><rect class="cls-8" x="902.74" y="166.84" width="543.44" height="314.37"/><path class="cls-35" d="M1551.3,55.39V369.76H1007.86V55.39H1551.3m1.68-1.68h-546.8V371.45H1553V53.71Z"/></g></svg>