<?xml version="1.0" encoding="utf-8"?>
<!-- Generator: Adobe Illustrator 21.0.0, SVG Export Plug-In . SVG Version: 6.00 Build 0)  -->
<svg version="1.1" id="Layer_1" xmlns="http://www.w3.org/2000/svg" xmlns:xlink="http://www.w3.org/1999/xlink" x="0px" y="0px"
	 viewBox="0 0 600 600" style="enable-background:new 0 0 600 600;" xml:space="preserve">
<style type="text/css">
	.st0{fill:#78909C;}
	.st1{fill:url(#SVGID_1_);}
	.st2{fill:url(#SVGID_2_);}
	.st3{fill:url(#SVGID_3_);}
</style>
<g>
	<path class="st0" d="M428.3,216.6c-1.7-5-7.2-7.7-12.2-6c-116.3,39.5-116.3,39.5-232.5,0c-5-1.7-10.5,1-12.2,6
		c-1.7,5,1,10.5,6,12.2c45.6,15.5,74.4,25.2,99,29c0.4,35.7-1.2,123.6-23.4,165.6c-8.9-3.7-17.6,14.6-2.6,18.3
		c8.4,2.1,18.3-3.1,29.8-35.6c7.6-21.5,13.3-63.9,17.3-64.4c0,0,1.6-0.4,2.9-0.5c1.3,0.1,2.9,0.5,2.9,0.5
		c3.9,0.5,9.6,42.8,17.3,64.4c11.5,32.5,21.5,37.7,29.8,35.6c15-3.7,6.3-22-2.6-18.3c-22.3-42-23.7-130.2-23.4-165.7
		c24.4-4,53-13.6,97.9-28.8C427.3,227.1,430,221.7,428.3,216.6z"/>
	<circle class="st0" cx="298.9" cy="192.8" r="35.5"/>
</g>
<g>
	<g>
		<linearGradient id="SVGID_1_" gradientUnits="userSpaceOnUse" x1="62.0748" y1="300" x2="592.4858" y2="300">
			<stop  offset="0" style="stop-color:#0032C3"/>
			<stop  offset="0" style="stop-color:#0066BC"/>
			<stop  offset="0.1568" style="stop-color:#0077BA"/>
			<stop  offset="0.7266" style="stop-color:#00B1B2"/>
			<stop  offset="1" style="stop-color:#00C8AF"/>
		</linearGradient>
		<path class="st1" d="M206.5,0v7c25,0,59.8,10,100.7,28.9c39.7,18.3,83.3,44.4,123,73.6c42.2,31.1,78.7,64.5,105.4,96.7
			c14.3,17.2,25.7,34,34,49.8c8.6,16.6,13.8,32.2,15.4,46.5c2,17.7-2.2,37.5-12.3,59c-9.7,20.5-24.6,42.2-44.4,64.2
			c-38.3,42.8-93.6,85.4-151.7,116.7c-60.3,32.6-118,50.5-162.4,50.5c-28.3,0-50.4-7.2-65.5-21.5c-21.3-20-40.8-54-54.9-95.7
			c-14.9-44-23.4-94.5-24.6-146c-1.4-56.5,6.3-113,22.1-163.6c18-57.6,46.3-107.8,84.1-149.2C181.5,10.4,192,7,206.5,7L206.5,0
			 M206.5,0c-16,0-28.5,3.9-36.3,12.4C7,191.3,54.2,492.4,144,576.6c17.3,16.2,41.7,23.4,70.3,23.4c143,0,391-178.3,377.7-298.3
			C578,176.3,314.1,0,206.5,0L206.5,0z"/>
	</g>
	<g>
		<linearGradient id="SVGID_2_" gradientUnits="userSpaceOnUse" x1="7.5142" y1="322.4628" x2="563.3275" y2="322.4628">
			<stop  offset="0" style="stop-color:#0032C3"/>
			<stop  offset="0" style="stop-color:#0066BC"/>
			<stop  offset="0.1568" style="stop-color:#0077BA"/>
			<stop  offset="0.7266" style="stop-color:#00B1B2"/>
			<stop  offset="1" style="stop-color:#00C8AF"/>
		</linearGradient>
		<path class="st2" d="M278.8,60.2v7c38.1,0,75.3,4.4,110.6,13.1c37.7,9.3,72.1,23.2,102.3,41.4c27.7,16.7,46.7,39.3,56.5,67.3
			c9,25.7,10.4,55.8,4.1,89.4c-5.9,31.5-18.2,64.9-36.6,99.4c-17.2,32.1-39.4,64.3-64.3,93.1c-50.8,58.7-108.1,98.4-153.3,106.3
			c-1.7,0.3-3.6,0.5-5.5,0.5c-20.5,0-51.2-16.6-86.4-46.8C171.9,501.4,135.4,461,103.5,417c-31.7-43.7-56.6-87.5-71.9-126.7
			c-16.7-42.8-21.3-78.7-13.1-103.7c5.6-17.3,16.6-33.6,32.6-48.4c15.6-14.4,35.5-27.2,59.2-37.9C157.7,79,217.5,67.2,278.8,67.2
			L278.8,60.2 M278.8,60.2c-125.8,0-242.3,48.4-267,124.2C-26.6,302.3,201,584.7,292.7,584.7c2.3,0,4.6-0.2,6.8-0.6
			c146.7-25.6,380.3-357.3,196-468.3C431.4,77.3,353.5,60.2,278.8,60.2L278.8,60.2z"/>
	</g>
	<g>
		<linearGradient id="SVGID_3_" gradientUnits="userSpaceOnUse" x1="80.1213" y1="299.6595" x2="492.3441" y2="299.6595">
			<stop  offset="0" style="stop-color:#0032C3"/>
			<stop  offset="0" style="stop-color:#0066BC"/>
			<stop  offset="0.1568" style="stop-color:#0077BA"/>
			<stop  offset="0.7266" style="stop-color:#00B1B2"/>
			<stop  offset="1" style="stop-color:#00C8AF"/>
		</linearGradient>
		<path class="st3" d="M299.5,117.3c44.7,0,91.1,10.3,138,30.5c13,5.6,23.6,15.2,31.4,28.4c7.4,12.6,12.4,28.4,14.8,47
			c4.9,38.2-1.3,86.9-17.1,133.7c-15.2,45-37.6,82.3-59.8,99.6c-9.9,7.8-23.7,14.2-39.8,18.6c-16.4,4.5-35.4,6.8-54.8,6.8
			c-53.5,0-106.8-17.1-146.2-46.8c-22.8-17.3-41.1-38.6-54.2-63.4c-14.6-27.6-22.9-59.7-24.5-95.2c-1.4-30,13.1-63.3,39.9-91.3
			C168.3,142.1,231.1,117.3,299.5,117.3C299.5,117.3,299.5,117.3,299.5,117.3 M299.4,110.3c-134.7,0-222.7,91.6-219.2,166.6
			C87.4,431,213,489,312.1,489c40.9,0,77.2-9.8,99-26.9c70.7-55.4,126.2-278.9,29.1-320.7C389.6,119.5,342.2,110.3,299.4,110.3
			L299.4,110.3z"/>
	</g>
</g>
</svg>
